<svg width="100%" height="100%" preserveAspectRatio="none" viewBox="0 0 319 59" fill="none" xmlns="http://www.w3.org/2000/svg">
    <path d="M0 18C0 8.05888 8.05887 0 18 0H300.237C310.84 0 319.147 9.11971 318.159 19.6771L316.952 32.5694C316.108 41.5893 308.692 48.5763 299.638 48.882L18.6075 58.3717C8.43404 58.7152 0 50.5612 0 40.3819V18Z"
          fill="#D9D9D9"/>
    <path d="M0 18C0 8.05888 8.05887 0 18 0H300.237C310.84 0 319.147 9.11971 318.159 19.6771L316.952 32.5694C316.108 41.5893 308.692 48.5763 299.638 48.882L18.6075 58.3717C8.43404 58.7152 0 50.5612 0 40.3819V18Z"
          fill="url(#paint0_radial_55_9)"/>
    <defs>
        <radialGradient id="paint0_radial_55_9" cx="0" cy="0" r="1" gradientUnits="userSpaceOnUse"
                        gradientTransform="translate(160 28.2708) rotate(90) scale(26.3476 160)">
            <stop stop-color="#FF1212"/>
            <stop offset="1" stop-color="#C62323"/>
        </radialGradient>
    </defs>
</svg>
