<svg width="60" height="60" viewBox="0 0 60 60" fill="none" xmlns="http://www.w3.org/2000/svg">
<circle cx="30" cy="30" r="30" fill="white" fill-opacity="0.1"/>
<path d="M39.3333 15.3333H20.6667C18.8992 15.3354 17.2047 16.0384 15.955 17.2882C14.7052 18.538 14.0021 20.2325 14 21.9999V37.9999C14.0021 39.7674 14.7052 41.4618 15.955 42.7116C17.2047 43.9614 18.8992 44.6645 20.6667 44.6666H39.3333C41.1008 44.6645 42.7953 43.9614 44.045 42.7116C45.2948 41.4618 45.9979 39.7674 46 37.9999V21.9999C45.9979 20.2325 45.2948 18.538 44.045 17.2882C42.7953 16.0384 41.1008 15.3354 39.3333 15.3333ZM20.6667 17.9999H39.3333C40.3942 17.9999 41.4116 18.4213 42.1618 19.1715C42.9119 19.9216 43.3333 20.9391 43.3333 21.9999V23.3333H16.6667V21.9999C16.6667 20.9391 17.0881 19.9216 17.8382 19.1715C18.5884 18.4213 19.6058 17.9999 20.6667 17.9999ZM39.3333 41.9999H20.6667C19.6058 41.9999 18.5884 41.5785 17.8382 40.8283C17.0881 40.0782 16.6667 39.0608 16.6667 37.9999V25.9999H43.3333V37.9999C43.3333 39.0608 42.9119 40.0782 42.1618 40.8283C41.4116 41.5785 40.3942 41.9999 39.3333 41.9999ZM39.3333 31.3333C39.3333 31.6869 39.1929 32.026 38.9428 32.2761C38.6928 32.5261 38.3536 32.6666 38 32.6666H22C21.6464 32.6666 21.3072 32.5261 21.0572 32.2761C20.8071 32.026 20.6667 31.6869 20.6667 31.3333C20.6667 30.9796 20.8071 30.6405 21.0572 30.3904C21.3072 30.1404 21.6464 29.9999 22 29.9999H38C38.3536 29.9999 38.6928 30.1404 38.9428 30.3904C39.1929 30.6405 39.3333 30.9796 39.3333 31.3333ZM34 36.6666C34 37.0202 33.8595 37.3593 33.6095 37.6094C33.3594 37.8594 33.0203 37.9999 32.6667 37.9999H22C21.6464 37.9999 21.3072 37.8594 21.0572 37.6094C20.8071 37.3593 20.6667 37.0202 20.6667 36.6666C20.6667 36.313 20.8071 35.9738 21.0572 35.7238C21.3072 35.4737 21.6464 35.3333 22 35.3333H32.6667C33.0203 35.3333 33.3594 35.4737 33.6095 35.7238C33.8595 35.9738 34 36.313 34 36.6666ZM18 20.6666C18 20.4029 18.0782 20.1451 18.2247 19.9258C18.3712 19.7066 18.5795 19.5357 18.8231 19.4347C19.0667 19.3338 19.3348 19.3074 19.5935 19.3589C19.8521 19.4103 20.0897 19.5373 20.2761 19.7238C20.4626 19.9102 20.5896 20.1478 20.641 20.4065C20.6925 20.6651 20.6661 20.9332 20.5652 21.1768C20.4643 21.4205 20.2934 21.6287 20.0741 21.7752C19.8548 21.9217 19.597 21.9999 19.3333 21.9999C18.9797 21.9999 18.6406 21.8594 18.3905 21.6094C18.1405 21.3593 18 21.0202 18 20.6666ZM22 20.6666C22 20.4029 22.0782 20.1451 22.2247 19.9258C22.3712 19.7066 22.5795 19.5357 22.8231 19.4347C23.0667 19.3338 23.3348 19.3074 23.5935 19.3589C23.8521 19.4103 24.0897 19.5373 24.2761 19.7238C24.4626 19.9102 24.5896 20.1478 24.641 20.4065C24.6925 20.6651 24.6661 20.9332 24.5652 21.1768C24.4643 21.4205 24.2934 21.6287 24.0741 21.7752C23.8548 21.9217 23.597 21.9999 23.3333 21.9999C22.9797 21.9999 22.6406 21.8594 22.3905 21.6094C22.1405 21.3593 22 21.0202 22 20.6666ZM26 20.6666C26 20.4029 26.0782 20.1451 26.2247 19.9258C26.3712 19.7066 26.5795 19.5357 26.8231 19.4347C27.0667 19.3338 27.3348 19.3074 27.5935 19.3589C27.8521 19.4103 28.0897 19.5373 28.2761 19.7238C28.4626 19.9102 28.5896 20.1478 28.641 20.4065C28.6925 20.6651 28.6661 20.9332 28.5652 21.1768C28.4643 21.4205 28.2934 21.6287 28.0741 21.7752C27.8548 21.9217 27.597 21.9999 27.3333 21.9999C26.9797 21.9999 26.6406 21.8594 26.3905 21.6094C26.1405 21.3593 26 21.0202 26 20.6666Z" fill="white"/>
</svg>
