<svg viewBox="0 0 38 50" fill="none" xmlns="http://www.w3.org/2000/svg">
    <path d="M11.8711 10.4492H26.1289C26.9379 10.4492 27.5938 9.79336 27.5938 8.98438V4.6875C27.5938 3.87852 26.9379 3.22266 26.1289 3.22266H23.3819C22.7987 1.35732 21.0549 0 19 0C16.9414 0 15.1949 1.3623 14.6149 3.23281L11.8746 3.22266C11.0569 3.22266 10.4062 3.88271 10.4062 4.6875V8.98438C10.4062 9.79336 11.0621 10.4492 11.8711 10.4492Z" fill="black"/>
    <path d="M11.9688 24.2188C12.8856 24.2188 13.6289 23.4755 13.6289 22.5586C13.6289 21.6417 12.8856 20.8984 11.9688 20.8984C11.0519 20.8984 10.3086 21.6417 10.3086 22.5586C10.3086 23.4755 11.0519 24.2188 11.9688 24.2188Z" fill="black"/>
    <path d="M33.0625 6.34766H30.5234V8.98438C30.5234 11.4075 28.5521 13.3789 26.1289 13.3789H11.8711C9.44785 13.3789 7.47656 11.4075 7.47656 8.98438V6.34766H4.9375C2.40664 6.34766 0.347656 8.40664 0.347656 10.9375V45.4102C0.347656 47.941 2.40664 50 4.9375 50H33.0625C35.5934 50 37.6523 47.941 37.6523 45.4102V10.9375C37.6523 8.40664 35.5934 6.34766 33.0625 6.34766ZM7.37891 22.5586C7.37891 20.0277 9.43789 17.9688 11.9688 17.9688C14.4996 17.9688 16.5586 20.0277 16.5586 22.5586C16.5586 25.0895 14.4996 27.1484 11.9688 27.1484C9.43789 27.1484 7.37891 25.0895 7.37891 22.5586ZM29.4107 41.0541C29.9828 41.6261 29.9828 42.5536 29.4107 43.1257C28.8387 43.6978 27.9112 43.6978 27.3392 43.1257L26.0312 41.8177L24.7232 43.1257C24.1512 43.6978 23.2237 43.6978 22.6517 43.1257C22.0796 42.5537 22.0796 41.6262 22.6517 41.0541L23.9597 39.7461L22.6517 38.4381C22.0796 37.8661 22.0796 36.9386 22.6517 36.3665C23.2236 35.7945 24.1512 35.7945 24.7232 36.3665L26.0312 37.6745L27.3393 36.3665C27.9112 35.7945 28.8388 35.7945 29.4108 36.3665C29.9829 36.9385 29.9829 37.866 29.4108 38.4381L28.1028 39.7461L29.4107 41.0541ZM30.192 22.8131C29.6199 23.3852 28.6925 23.3852 28.1204 22.8131L27.4961 22.1888V22.5586C27.4961 28.3844 23.478 30.7262 19.933 32.7923C16.4455 34.8248 13.4336 36.5803 13.4336 41.3086V42.0898C13.4336 42.8988 12.7777 43.5547 11.9688 43.5547C11.1598 43.5547 10.5039 42.8988 10.5039 42.0898V41.3086C10.5039 38.4295 11.3721 36.0792 13.158 34.1234C14.6681 32.4698 16.5946 31.347 18.4577 30.2611C21.8707 28.2721 24.5664 26.7009 24.5664 22.5586V22.1888L23.942 22.8131C23.37 23.3851 22.4425 23.3851 21.8704 22.8131C21.2983 22.2411 21.2983 21.3136 21.8704 20.7415L24.9954 17.6165C25.5674 17.0445 26.4949 17.0445 27.067 17.6165L30.192 20.7415C30.7641 21.3136 30.7641 22.2411 30.192 22.8131Z" fill="black"/>
    <path d="M33.0625 6.34766H30.5234V8.98438C30.5234 11.4075 28.5521 13.3789 26.1289 13.3789H11.8711C9.44785 13.3789 7.47656 11.4075 7.47656 8.98438V6.34766H4.9375C2.40664 6.34766 0.347656 8.40664 0.347656 10.9375V45.4102C0.347656 47.941 2.40664 50 4.9375 50H33.0625C35.5934 50 37.6523 47.941 37.6523 45.4102V10.9375C37.6523 8.40664 35.5934 6.34766 33.0625 6.34766ZM7.37891 22.5586C7.37891 20.0277 9.43789 17.9688 11.9688 17.9688C14.4996 17.9688 16.5586 20.0277 16.5586 22.5586C16.5586 25.0895 14.4996 27.1484 11.9688 27.1484C9.43789 27.1484 7.37891 25.0895 7.37891 22.5586ZM29.4107 41.0541C29.9828 41.6261 29.9828 42.5536 29.4107 43.1257C28.8387 43.6978 27.9112 43.6978 27.3392 43.1257L26.0312 41.8177L24.7232 43.1257C24.1512 43.6978 23.2237 43.6978 22.6517 43.1257C22.0796 42.5537 22.0796 41.6262 22.6517 41.0541L23.9597 39.7461L22.6517 38.4381C22.0796 37.8661 22.0796 36.9386 22.6517 36.3665C23.2236 35.7945 24.1512 35.7945 24.7232 36.3665L26.0312 37.6745L27.3393 36.3665C27.9112 35.7945 28.8388 35.7945 29.4108 36.3665C29.9829 36.9385 29.9829 37.866 29.4108 38.4381L28.1028 39.7461L29.4107 41.0541ZM30.192 22.8131C29.6199 23.3852 28.6925 23.3852 28.1204 22.8131L27.4961 22.1888V22.5586C27.4961 28.3844 23.478 30.7262 19.933 32.7923C16.4455 34.8248 13.4336 36.5803 13.4336 41.3086V42.0898C13.4336 42.8988 12.7777 43.5547 11.9688 43.5547C11.1598 43.5547 10.5039 42.8988 10.5039 42.0898V41.3086C10.5039 38.4295 11.3721 36.0792 13.158 34.1234C14.6681 32.4698 16.5946 31.347 18.4577 30.2611C21.8707 28.2721 24.5664 26.7009 24.5664 22.5586V22.1888L23.942 22.8131C23.37 23.3851 22.4425 23.3851 21.8704 22.8131C21.2983 22.2411 21.2983 21.3136 21.8704 20.7415L24.9954 17.6165C25.5674 17.0445 26.4949 17.0445 27.067 17.6165L30.192 20.7415C30.7641 21.3136 30.7641 22.2411 30.192 22.8131Z" fill="url(#paint0_radial_174_17)"/>
    <defs>
        <radialGradient id="paint0_radial_174_17" cx="0" cy="0" r="1" gradientUnits="userSpaceOnUse" gradientTransform="translate(19 28.1738) scale(18.6523 21.8262)">
            <stop stop-color="#B68300"/>
            <stop offset="1" stop-color="#ECBF47"/>
        </radialGradient>
    </defs>
</svg>
