<svg width="60" height="60" viewBox="0 0 60 60" fill="none" xmlns="http://www.w3.org/2000/svg">
<circle cx="30" cy="30" r="30" fill="white" fill-opacity="0.1"/>
<g clip-path="url(#clip0_1_52)">
<path d="M35.228 28.9987L29.7333 36.3493C29.584 36.5493 29.3493 36.6667 29.1 36.6667C28.5813 36.6667 28.204 36.176 28.336 35.6747L29.4813 31.3333H25.8347C25.1013 31.3333 24.576 30.6253 24.788 29.9227L27.204 23.212C27.4667 22.484 28.156 21.9987 28.9293 21.9987H31.02C31.8507 21.9987 32.4227 22.8293 32.128 23.6053L30.7093 27.332H34.332C35.188 27.332 35.6987 28.2853 35.2253 28.9973L35.228 28.9987ZM45.012 32.2307C45.6547 33.228 46.0013 34.3853 46.0013 35.5867C46.0013 37.9507 44.624 40.12 42.5187 41.1587C41.08 44.2853 38.5467 45.9987 35.3333 45.9987C33.376 45.9987 31.3373 44.9147 30 43.332C28.6627 44.916 26.624 45.9987 24.6667 45.9987C21.4547 45.9987 18.92 44.2853 17.4813 41.1587C15.376 40.1213 14 37.952 14 35.588C14 34.3867 14.3453 33.2293 14.988 32.232C14.2947 31.1573 13.9307 29.9387 13.9307 28.6667C13.9307 27.22 14.436 25.2347 16.7253 23.6707V23.0147C16.7253 20.5867 18.4773 18.736 21.0347 18.292C21.5293 15.8067 23.504 14 25.9307 14C27.3293 14 28.8893 14.4933 30.004 15.556C31.1267 14.4947 32.688 14 34.0347 14H34.0787C36.4973 14.0213 38.4653 15.8267 38.9627 18.2933C41.5213 18.7373 43.2733 20.588 43.2733 23.016V23.672C45.5627 25.2347 46.068 27.2213 46.068 28.668C46.068 29.94 45.7053 31.1587 45.0107 32.2333L45.012 32.2307ZM41.9707 32.164C41.9827 31.8053 42.1387 31.4667 42.404 31.224C42.9573 30.508 43.4027 29.5347 43.4027 28.6653C43.4027 27.848 43.184 26.6373 41.288 25.5733C40.8693 25.3373 40.608 24.8933 40.608 24.4107V23.0147C40.608 21.532 39.128 20.856 37.7507 20.856C37.0133 20.856 36.4173 20.2587 36.4173 19.5227C36.4173 18.1467 35.5907 16.6773 34.056 16.664H34.0293C32.9533 16.664 31.64 17.2013 31.272 18.3933C31.0987 18.9507 30.5827 19.332 30 19.332C29.416 19.332 28.9013 18.952 28.7267 18.3947C28.3573 17.2053 27.0187 16.664 25.9307 16.664C24.404 16.664 23.5813 18.136 23.5813 19.5213C23.5813 20.2573 22.9853 20.8547 22.248 20.8547C20.872 20.8547 19.3907 21.5307 19.3907 23.0133V24.4093C19.3907 24.8907 19.1307 25.336 18.7107 25.572C16.8147 26.6373 16.596 27.848 16.596 28.664C16.596 29.5333 17.0413 30.5067 17.5947 31.2227C17.86 31.4653 18.016 31.804 18.028 32.1627C18.0413 32.5227 17.9067 32.8707 17.66 33.1307C17.0187 33.8 16.664 34.672 16.664 35.5853C16.664 37.068 17.5693 38.3693 18.968 38.8987C19.3173 39.0307 19.5947 39.3013 19.7333 39.6467C20.732 42.1253 22.3453 43.3307 24.6653 43.3307C26.3227 43.3307 28.22 41.9 28.7253 40.2693C28.8987 39.7107 29.4147 39.3307 29.9987 39.3307C30.5827 39.3307 31.0987 39.7107 31.272 40.2693C31.7773 41.9 33.6747 43.3307 35.332 43.3307C37.652 43.3307 39.2653 42.1253 40.264 39.6467C40.4027 39.3013 40.68 39.0307 41.0293 38.8987C42.428 38.3693 43.3333 37.068 43.3333 35.5853C43.3333 34.672 42.9787 33.8013 42.3373 33.1307C42.0893 32.8707 41.956 32.5213 41.9693 32.1627L41.9707 32.164Z" fill="white"/>
</g>
<defs>
<clipPath id="clip0_1_52">
<rect width="32" height="32" fill="white" transform="translate(14 14)"/>
</clipPath>
</defs>
</svg>
