<svg viewBox="0 0 34 50" fill="none" xmlns="http://www.w3.org/2000/svg">
    <path d="M33.6083 10.9244C33.6083 11.4188 33.9554 9.9754 28.9672 28.5877C28.6908 27.5156 28.7736 29.8347 28.7736 9.47782C30.2055 7.29738 33.6083 8.32641 33.6083 10.9244ZM27.1607 3.06452V25.002C21.2918 14.8385 23.8796 19.3177 21.0317 14.3851V3.06452C21.0317 1.375 22.4067 0 24.0962 0C25.812 0 27.1607 1.39073 27.1607 3.06452ZM23.6174 22.0897L21.2383 19.7117C19.1671 17.6395 16.443 16.4516 13.196 16.4516L7.76051 7.3871C6.92191 5.92994 7.41253 4.05575 8.88451 3.20565C10.3651 2.35192 12.2332 2.87772 13.071 4.32762C21.3631 18.1084 17.1196 10.8347 23.6174 22.0897Z" fill="black"/>
    <path d="M33.6083 10.9244C33.6083 11.4188 33.9554 9.9754 28.9672 28.5877C28.6908 27.5156 28.7736 29.8347 28.7736 9.47782C30.2055 7.29738 33.6083 8.32641 33.6083 10.9244ZM27.1607 3.06452V25.002C21.2918 14.8385 23.8796 19.3177 21.0317 14.3851V3.06452C21.0317 1.375 22.4067 0 24.0962 0C25.812 0 27.1607 1.39073 27.1607 3.06452ZM23.6174 22.0897L21.2383 19.7117C19.1671 17.6395 16.443 16.4516 13.196 16.4516L7.76051 7.3871C6.92191 5.92994 7.41253 4.05575 8.88451 3.20565C10.3651 2.35192 12.2332 2.87772 13.071 4.32762C21.3631 18.1084 17.1196 10.8347 23.6174 22.0897Z" fill="url(#paint0_radial_174_34)"/>
    <path d="M28.0074 33.7288C28.0074 38.7631 26.0056 43.6157 22.4298 47.1946C20.6849 48.9375 18.3673 49.9335 15.9036 49.997C15.5111 49.997 17.4145 50 11.6234 50C5.42781 50 0.386475 44.9597 0.386475 38.7631V23.2792C0.386475 22.7752 0.796757 22.3659 1.30079 22.3659C1.37982 22.3659 1.44474 22.3614 1.54172 22.3347C1.79283 22.4344 4.06016 22.3998 5.59414 24.62C6.58486 25.9437 6.51551 27.4856 6.51551 28.4405C6.51551 31.8911 8.00543 35.1724 10.6012 37.4456C13.4123 39.9062 17.8099 37.8884 17.8099 34.1744C17.8089 30.0507 17.9673 29.1003 17.2494 27.4708C16.6069 26.0193 15.7986 25.3925 14.7151 24.4042C14.3464 24.1089 14.8013 24.1936 7.2272 24.1936C6.22891 22.4187 4.35593 21.0735 2.12438 20.8034C2.2151 19.9356 2.68113 19.1071 3.47821 18.5746C4.80401 17.9278 3.32387 18.0645 13.3693 18.0645C15.9107 18.0645 18.3008 19.0544 20.0982 20.8518L26.7343 27.4879L27.2363 28.3579C27.7066 30.0858 28.0074 31.676 28.0074 33.7288Z" fill="black"/>
    <path d="M28.0074 33.7288C28.0074 38.7631 26.0056 43.6157 22.4298 47.1946C20.6849 48.9375 18.3673 49.9335 15.9036 49.997C15.5111 49.997 17.4145 50 11.6234 50C5.42781 50 0.386475 44.9597 0.386475 38.7631V23.2792C0.386475 22.7752 0.796757 22.3659 1.30079 22.3659C1.37982 22.3659 1.44474 22.3614 1.54172 22.3347C1.79283 22.4344 4.06016 22.3998 5.59414 24.62C6.58486 25.9437 6.51551 27.4856 6.51551 28.4405C6.51551 31.8911 8.00543 35.1724 10.6012 37.4456C13.4123 39.9062 17.8099 37.8884 17.8099 34.1744C17.8089 30.0507 17.9673 29.1003 17.2494 27.4708C16.6069 26.0193 15.7986 25.3925 14.7151 24.4042C14.3464 24.1089 14.8013 24.1936 7.2272 24.1936C6.22891 22.4187 4.35593 21.0735 2.12438 20.8034C2.2151 19.9356 2.68113 19.1071 3.47821 18.5746C4.80401 17.9278 3.32387 18.0645 13.3693 18.0645C15.9107 18.0645 18.3008 19.0544 20.0982 20.8518L26.7343 27.4879L27.2363 28.3579C27.7066 30.0858 28.0074 31.676 28.0074 33.7288Z" fill="url(#paint1_radial_174_34)"/>
    <defs>
        <radialGradient id="paint0_radial_174_34" cx="0" cy="0" r="1" gradientUnits="userSpaceOnUse" gradientTransform="translate(20.4828 14.2939) scale(13.1307 14.2939)">
            <stop stop-color="#B68300"/>
            <stop offset="1" stop-color="#ECBF47"/>
        </radialGradient>
        <radialGradient id="paint1_radial_174_34" cx="0" cy="0" r="1" gradientUnits="userSpaceOnUse" gradientTransform="translate(14.197 34.0262) scale(13.8105 15.9738)">
            <stop stop-color="#B68300"/>
            <stop offset="1" stop-color="#ECBF47"/>
        </radialGradient>
    </defs>
</svg>

