<svg viewBox="0 0 46 42" fill="none" xmlns="http://www.w3.org/2000/svg">
    <path d="M29.6761 8.4789C27.1763 3.37463 21.9471 0 16.0817 0C7.68881 0 0.860774 6.78929 0.860774 15.1344C0.860774 17.4023 1.34767 19.576 2.30866 21.6028L0.88594 28.7172C0.704846 29.6229 1.50377 30.4233 2.40959 30.2442L9.61174 28.8202C10.5727 29.2766 11.5796 29.6289 12.6154 29.8711C10.3049 18.9275 18.5999 8.65515 29.6761 8.4789Z" fill="black"/>
    <path d="M29.6761 8.4789C27.1763 3.37463 21.9471 0 16.0817 0C7.68881 0 0.860774 6.78929 0.860774 15.1344C0.860774 17.4023 1.34767 19.576 2.30866 21.6028L0.88594 28.7172C0.704846 29.6229 1.50377 30.4233 2.40959 30.2442L9.61174 28.8202C10.5727 29.2766 11.5796 29.6289 12.6154 29.8711C10.3049 18.9275 18.5999 8.65515 29.6761 8.4789Z" fill="url(#paint0_radial_174_26)"/>
    <path d="M43.692 32.6725C43.939 32.1516 44.1559 31.617 44.3416 31.0714H44.2941C47.5327 21.5655 40.722 11.5747 30.6674 11.0882L30.6669 11.0867C22.0156 10.688 14.8279 17.6149 14.8279 26.2041C14.8279 34.5422 21.6047 41.3262 29.9401 41.3383C32.201 41.3353 34.368 40.8485 36.3889 39.89C44.2767 41.4494 43.6615 41.3385 43.8427 41.3385C44.6625 41.3385 45.2748 40.5874 45.1148 39.787L43.692 32.6725Z" fill="black"/>
    <path d="M43.692 32.6725C43.939 32.1516 44.1559 31.617 44.3416 31.0714H44.2941C47.5327 21.5655 40.722 11.5747 30.6674 11.0882L30.6669 11.0867C22.0156 10.688 14.8279 17.6149 14.8279 26.2041C14.8279 34.5422 21.6047 41.3262 29.9401 41.3383C32.201 41.3353 34.368 40.8485 36.3889 39.89C44.2767 41.4494 43.6615 41.3385 43.8427 41.3385C44.6625 41.3385 45.2748 40.5874 45.1148 39.787L43.692 32.6725Z" fill="url(#paint1_radial_174_26)"/>
    <defs>
        <radialGradient id="paint0_radial_174_26" cx="0" cy="0" r="1" gradientUnits="userSpaceOnUse" gradientTransform="translate(15.2681 15.1347) scale(14.408 15.1347)">
            <stop stop-color="#B68300"/>
            <stop offset="1" stop-color="#ECBF47"/>
        </radialGradient>
        <radialGradient id="paint1_radial_174_26" cx="0" cy="0" r="1" gradientUnits="userSpaceOnUse" gradientTransform="translate(29.9841 26.2053) scale(15.1562 15.135)">
            <stop stop-color="#B68300"/>
            <stop offset="1" stop-color="#ECBF47"/>
        </radialGradient>
    </defs>
</svg>

