<svg width="60" height="60" viewBox="0 0 60 60" fill="none" xmlns="http://www.w3.org/2000/svg">
    <circle cx="30" cy="30" r="30" fill="white" fill-opacity="0.1"/>
    <g clip-path="url(#clip0_1_57)">
        <path d="M30 14C21.1773 14 14 21.1773 14 30C14 38.8227 21.1773 46 30 46C38.8227 46 46 38.8227 46 30C46 21.1773 38.8227 14 30 14ZM30 43.3333C22.648 43.3333 16.6667 37.352 16.6667 30C16.6667 22.648 22.648 16.6667 30 16.6667C37.352 16.6667 43.3333 22.648 43.3333 30C43.3333 37.352 37.352 43.3333 30 43.3333ZM35.3333 32.6667C35.3333 34.872 33.5387 36.6667 31.3333 36.6667V38C31.3333 38.7373 30.7373 39.3333 30 39.3333C29.2627 39.3333 28.6667 38.7373 28.6667 38V36.6667H28.3093C26.8867 36.6667 25.5587 35.9013 24.8453 34.668C24.476 34.0293 24.6947 33.2147 25.3307 32.8467C25.9693 32.4747 26.7853 32.696 27.152 33.332C27.3907 33.7453 27.8333 34 28.308 34H31.332C32.068 34 32.6653 33.4027 32.6653 32.6667C32.6653 32.1627 32.304 31.736 31.8067 31.6533L27.752 30.9773C25.9627 30.68 24.6653 29.1467 24.6653 27.3333C24.6653 25.128 26.46 23.3333 28.6653 23.3333V22C28.6653 21.264 29.2613 20.6667 29.9987 20.6667C30.736 20.6667 31.332 21.264 31.332 22V23.3333H31.6893C33.112 23.3333 34.44 24.1 35.1533 25.3333C35.5227 25.9707 35.304 26.7853 34.668 27.1547C34.028 27.524 33.2133 27.3053 32.8467 26.668C32.608 26.256 32.1653 26.0013 31.6907 26.0013H28.6667C27.9307 26.0013 27.3333 26.6 27.3333 27.3347C27.3333 27.8387 27.6947 28.2653 28.192 28.348L32.2467 29.024C34.036 29.3213 35.3333 30.8547 35.3333 32.668V32.6667Z"
              fill="white"/>
    </g>
    <defs>
        <clipPath id="clip0_1_57">
            <rect width="32" height="32" fill="white" transform="translate(14 14)"/>
        </clipPath>
    </defs>
</svg>
